<?xml version="1.0" encoding="UTF-8"?>
<!DOCTYPE svg PUBLIC "-//W3C//DTD SVG 1.1//EN" "http://www.w3.org/Graphics/SVG/1.1/DTD/svg11.dtd">
<!-- Creator: CorelDRAW -->
<svg xmlns="http://www.w3.org/2000/svg" xml:space="preserve" width="2048px" height="2048px" style="shape-rendering:geometricPrecision; text-rendering:geometricPrecision; image-rendering:optimizeQuality; fill-rule:evenodd; clip-rule:evenodd"
viewBox="0 0 2048 2048"
 xmlns:xlink="http://www.w3.org/1999/xlink">
 <defs>
  <style type="text/css">
   <![CDATA[
    /* Цвет совпадает с обводкой неактивной звездочки */
    .fil0 {fill:#5E5E5E}
   ]]>
  </style>
 </defs>
 <g id="Menu_Icon">
  <metadata id="CorelCorpID_0Corel-Layer"/>

  <path class="fil0" d="M324 614c0,-55 45,-100 100,-100l1200 0c55,0 100,45 100,100 0,55 -45,100 -100,100l-1200 0c-55,0 -100,-45 -100,-100z"/>
  

  <path class="fil0" d="M324 1024c0,-55 45,-100 100,-100l1200 0c55,0 100,45 100,100 0,55 -45,100 -100,100l-1200 0c-55,0 -100,-45 -100,-100z"/>
  

  <path class="fil0" d="M324 1434c0,-55 45,-100 100,-100l1200 0c55,0 100,45 100,100 0,55 -45,100 -100,100l-1200 0c-55,0 -100,-45 -100,-100z"/>
 </g>
</svg>
