<?xml version="1.0" encoding="UTF-8"?>
<!DOCTYPE svg PUBLIC "-//W3C//DTD SVG 1.1//EN" "http://www.w3.org/Graphics/SVG/1.1/DTD/svg11.dtd">
<svg xmlns="http://www.w3.org/2000/svg" xml:space="preserve" width="2048px" height="2048px" style="shape-rendering:geometricPrecision; text-rendering:geometricPrecision; image-rendering:optimizeQuality; fill-rule:evenodd; clip-rule:evenodd"
viewBox="0 0 2048 2048">
 <defs>
  <style type="text/css">
   <![CDATA[
    .base {fill:#5D4037}
    .corner {fill:#D7CCC8}
    .glyph {fill:#FFFFFF}
    .zip {fill:#8D6E63}
   ]]>
  </style>
 </defs>
 <g id="Archive_File">
  <path class="base" d="M384 128l832 0 448 448 0 1344c0,70 -58,128 -128,128l-1152 0c-70,0 -128,-58 -128,-128l0 -1664c0,-70 58,-128 128,-128z"/>
  <path class="corner" d="M1216 128l0 320c0,70 58,128 128,128l320 0 -448 -448z"/>
  <!-- Молния архива -->
  <path class="zip" d="M928 128l192 0 0 1792 -192 0 0 -1792z"/>
  <path class="glyph" d="M928 320l96 0 0 128 -96 0 0 -128zm96 128l96 0 0 128 -96 0 0 -128zm-96 128l96 0 0 128 -96 0 0 -128zm96 128l96 0 0 128 -96 0 0 -128zm-96 128l96 0 0 128 -96 0 0 -128zm96 128l96 0 0 128 -96 0 0 -128z"/>
  <rect class="glyph" x="900" y="1400" width="248" height="300" rx="30" />
 </g>
</svg>
