<?xml version="1.0" encoding="UTF-8"?>
<!DOCTYPE svg PUBLIC "-//W3C//DTD SVG 1.1//EN" "http://www.w3.org/Graphics/SVG/1.1/DTD/svg11.dtd">
<svg xmlns="http://www.w3.org/2000/svg" xml:space="preserve" width="2048px" height="2048px" style="shape-rendering:geometricPrecision; text-rendering:geometricPrecision; image-rendering:optimizeQuality; fill-rule:evenodd; clip-rule:evenodd"
viewBox="0 0 2048 2048">
 <defs>
  <style type="text/css">
   <![CDATA[
    .base {fill:#EC407A} /* Lighter Pink */
    .corner {fill:#F8BBD0}
    .glyph {fill:#FFFFFF}
   ]]>
  </style>
 </defs>
 <g id="Audio_Dark">
  <path class="base" d="M384 128l832 0 448 448 0 1344c0,70 -58,128 -128,128l-1152 0c-70,0 -128,-58 -128,-128l0 -1664c0,-70 58,-128 128,-128z"/>
  <path class="corner" d="M1216 128l0 320c0,70 58,128 128,128l320 0 -448 -448z"/>
  <path class="glyph" d="M960 832l0 544c0,80 -80,160 -192,160 -100,0 -192,-60 -192,-160 0,-100 92,-160 192,-160 30,0 64,10 64,10l0 -394 384 -96 0 490c0,80 -80,160 -192,160 -100,0 -192,-60 -192,-160 0,-100 92,-160 192,-160 30,0 64,10 64,10l0 -608 -528 128z"/>
 </g>
</svg>
