<?xml version="1.0" encoding="UTF-8"?>
<!DOCTYPE svg PUBLIC "-//W3C//DTD SVG 1.1//EN" "http://www.w3.org/Graphics/SVG/1.1/DTD/svg11.dtd">
<svg xmlns="http://www.w3.org/2000/svg" xml:space="preserve" width="2048px" height="2048px" style="shape-rendering:geometricPrecision; text-rendering:geometricPrecision; image-rendering:optimizeQuality; fill-rule:evenodd; clip-rule:evenodd"
viewBox="0 0 2048 2048">
 <defs>
  <style type="text/css">
   <![CDATA[
    /* Светло-серый фон для комфорта в темной теме */
    .base {fill:#CFD8DC} 
    .corner {fill:#B0BEC5}
    /* Темно-серые линии текста для контраста */
    .glyph {fill:#546E7A}
   ]]>
  </style>
 </defs>
 <g id="TXT_Dark">
  <path class="base" d="M384 128l832 0 448 448 0 1344c0,70 -58,128 -128,128l-1152 0c-70,0 -128,-58 -128,-128l0 -1664c0,-70 58,-128 128,-128z"/>
  <path class="corner" d="M1216 128l0 320c0,70 58,128 128,128l320 0 -448 -448z"/>
  <rect class="glyph" x="640" y="768" width="768" height="128" rx="20"/>
  <rect class="glyph" x="640" y="1024" width="768" height="128" rx="20"/>
  <rect class="glyph" x="640" y="1280" width="768" height="128" rx="20"/>
  <rect class="glyph" x="640" y="1536" width="512" height="128" rx="20"/>
 </g>
</svg>
