<?xml version="1.0" encoding="UTF-8"?>
<!DOCTYPE svg PUBLIC "-//W3C//DTD SVG 1.1//EN" "http://www.w3.org/Graphics/SVG/1.1/DTD/svg11.dtd">
<svg xmlns="http://www.w3.org/2000/svg" xml:space="preserve" width="2048px" height="2048px" style="shape-rendering:geometricPrecision; text-rendering:geometricPrecision; image-rendering:optimizeQuality; fill-rule:evenodd; clip-rule:evenodd"
viewBox="0 0 2048 2048">
 <defs>
  <style type="text/css">
   <![CDATA[
    .base {fill:#00897B}
    .corner {fill:#B2DFDB}
    .glyph {fill:#FFFFFF}
   ]]>
  </style>
 </defs>
 <g id="Code_File">
  <path class="base" d="M384 128l832 0 448 448 0 1344c0,70 -58,128 -128,128l-1152 0c-70,0 -128,-58 -128,-128l0 -1664c0,-70 58,-128 128,-128z"/>
  <path class="corner" d="M1216 128l0 320c0,70 58,128 128,128l320 0 -448 -448z"/>
  <!-- Скобки кода < > -->
  <path class="glyph" d="M768 832l-256 384 256 384 100 -64 -212 -320 212 -320 -100 -64zm512 0l-100 64 212 320 -212 320 100 64 256 -384 -256 -384zm-300 800l300 -800 -100 -32 -300 800 100 32z"/>
 </g>
</svg>
